<?xml version="1.0" encoding="utf-8"?>
<!-- Generator: Adobe Illustrator 21.0.2, SVG Export Plug-In . SVG Version: 6.00 Build 0)  -->
<svg version="1.1" id="Layer_1" xmlns="http://www.w3.org/2000/svg" xmlns:xlink="http://www.w3.org/1999/xlink" x="0px" y="0px"
	 viewBox="0 0 100 70" style="enable-background:new 0 0 100 70;" xml:space="preserve">
<style type="text/css">
	.st0{fill:#EFECE0;}
</style>
<path class="st0" d="M65.8,0.9c-5.6,0-10.9,1.4-15.6,3.8c-4.7-2.4-10-3.8-15.6-3.8C15.8,0.9,0.5,16.2,0.5,35s15.3,34.1,34.1,34.1
	c5.6,0,10.9-1.4,15.6-3.8c4.7,2.4,10,3.8,15.6,3.8c18.8,0,34.1-15.3,34.1-34.1S84.6,0.9,65.8,0.9z M34.6,67.8
	C16.5,67.8,1.8,53.1,1.8,35c0-18.1,14.7-32.8,32.8-32.8c5.1,0,9.9,1.2,14.2,3.2c-0.3,0.2-0.7,0.4-1,0.6c-4-1.8-8.5-2.9-13.2-2.9
	C17,3.2,2.8,17.4,2.8,35c0,17.5,14.3,31.8,31.8,31.8c4.7,0,9.2-1,13.2-2.9c0.3,0.2,0.7,0.4,1,0.6C44.5,66.6,39.7,67.8,34.6,67.8z
	 M68.7,35.6h27.6C96,52.2,82.4,65.5,65.8,65.5c-4.2,0-8.3-0.9-11.9-2.4C62.6,57.1,68.5,47,68.7,35.6z M68.7,34.3
	c-0.2-11.4-6-21.4-14.8-27.5c3.7-1.6,7.7-2.4,11.9-2.4c16.6,0,30.2,13.4,30.5,29.9H68.7z M67.4,35c0,11.5-5.9,21.6-14.9,27.5
	c-0.3-0.2-0.7-0.3-1-0.5c9-5.6,15-15.6,15-27c0-11.4-6-21.3-15-27c0.3-0.2,0.7-0.4,1-0.5C61.4,13.3,67.4,23.5,67.4,35z M31.7,34.3H4
	C4.4,17.8,18,4.4,34.6,4.4c4.2,0,8.3,0.9,11.9,2.4C37.7,12.9,31.9,22.9,31.7,34.3z M31.7,35.6c0.2,11.4,6,21.4,14.8,27.5
	c-3.7,1.6-7.7,2.4-11.9,2.4C18,65.5,4.4,52.2,4,35.6H31.7z M33,35c0-11.5,5.9-21.6,14.9-27.5c0.3,0.2,0.7,0.3,1,0.5
	c-9,5.6-15,15.6-15,27c0,11.4,6,21.3,15,27c-0.3,0.2-0.7,0.4-1,0.5C38.9,56.6,33,46.5,33,35z M50.2,8.7c8.9,5.3,15,15.1,15,26.3
	c0,11.2-6,20.9-15,26.3c-8.9-5.3-15-15.1-15-26.3C35.2,23.8,41.2,14.1,50.2,8.7z M50.2,62.7c0.3,0.2,0.7,0.4,1,0.6
	c-0.3,0.2-0.7,0.4-1,0.6c-0.3-0.2-0.7-0.4-1-0.6C49.5,63.1,49.8,62.9,50.2,62.7z M50.2,7.2c-0.3-0.2-0.7-0.4-1-0.6
	c0.3-0.2,0.7-0.4,1-0.6c0.3,0.2,0.7,0.4,1,0.6C50.9,6.9,50.5,7.1,50.2,7.2z M65.8,67.8c-5.1,0-9.9-1.2-14.2-3.2
	c0.3-0.2,0.7-0.4,1-0.6c4,1.8,8.5,2.9,13.2,2.9c17.5,0,31.8-14.3,31.8-31.8c0-17.5-14.3-31.8-31.8-31.8c-4.7,0-9.2,1-13.2,2.9
	c-0.3-0.2-0.7-0.4-1-0.6c4.3-2.1,9.1-3.2,14.2-3.2c18.1,0,32.8,14.7,32.8,32.8C98.6,53.1,83.9,67.8,65.8,67.8z"/>
</svg>
