<?xml version="1.0" encoding="UTF-8"?>
<!-- Generator: visioncortex VTracer 0.6.3 -->
<svg version="1.1" xmlns="http://www.w3.org/2000/svg" width="1280" height="622">
<path d="M0 0 C2.48 2.48 2.23 3.88 2.25 7.26 C2.24 7.99 2.23 8.73 2.23 9.48 C2.23 10.25 2.23 11.02 2.23 11.81 C2.23 14.37 2.21 16.92 2.2 19.48 C2.19 21.24 2.19 23.01 2.19 24.78 C2.18 29.44 2.16 34.1 2.14 38.76 C2.12 43.51 2.11 48.26 2.1 53.02 C2.08 62.34 2.04 71.67 2 81 C2.66 81 3.32 81 4 81 C3.99 80.3 3.99 79.6 3.98 78.88 C3.89 63.91 4 48.96 4.44 34 C4.47 32.94 4.47 32.94 4.5 31.86 C4.75 22.88 5.22 13.95 6 5 C6.33 5 6.66 5 7 5 C7.85 15.46 8.28 25.89 8.56 36.38 C8.61 37.9 8.65 39.43 8.69 40.95 C8.8 44.64 8.9 48.32 9 52 C9.04 50.56 9.04 50.56 9.08 49.08 C9.17 45.48 9.27 41.88 9.37 38.29 C9.42 36.73 9.46 35.18 9.5 33.63 C9.56 31.39 9.62 29.14 9.68 26.9 C9.7 26.22 9.72 25.53 9.73 24.82 C9.87 20.47 10.31 16.29 11 12 C11.33 12 11.66 12 12 12 C13.59 16.94 14.28 21.23 14.41 26.46 C14.43 27.14 14.45 27.82 14.47 28.52 C14.53 30.66 14.58 32.8 14.62 34.94 C14.66 36.4 14.7 37.86 14.74 39.32 C14.84 42.88 14.92 46.44 15 50 C15.02 49.14 15.04 48.27 15.06 47.39 C15.14 44.18 15.22 40.98 15.32 37.77 C15.36 36.39 15.39 35 15.42 33.62 C15.47 31.62 15.53 29.63 15.59 27.64 C15.63 25.84 15.63 25.84 15.68 24 C16 21 16 21 18 18 C18.66 18 19.32 18 20 18 C20.33 29.22 20.66 40.44 21 52 C22.4 49.21 22.22 46.8 22.32 43.68 C22.36 42.42 22.4 41.17 22.44 39.87 C22.48 38.55 22.52 37.23 22.56 35.88 C22.61 34.54 22.65 33.2 22.69 31.86 C22.8 28.57 22.9 25.29 23 22 C24.49 22.5 24.49 22.5 26 23 C26.33 32.24 26.66 41.48 27 51 C27.33 43.41 27.66 35.82 28 28 C28.99 28 29.98 28 31 28 C32.65 29.65 32.23 31.64 32.32 33.91 C32.36 34.9 32.4 35.89 32.44 36.91 C32.48 37.95 32.52 38.99 32.56 40.06 C32.61 41.11 32.65 42.15 32.69 43.23 C32.8 45.82 32.9 48.41 33 51 C33.33 45.06 33.66 39.12 34 33 C35.98 33.5 35.98 33.5 38 34 C38.5 38.45 38.5 38.45 39 43 C39.66 41.68 40.32 40.36 41 39 C41.66 39 42.32 39 43 39 C43.06 39.78 43.12 40.56 43.18 41.37 C43.27 42.38 43.35 43.39 43.44 44.44 C43.52 45.45 43.6 46.46 43.68 47.5 C43.73 49.94 43.73 49.94 45 51 C45.33 49.02 45.66 47.04 46 45 C46.99 45 47.98 45 49 45 C49.99 47.97 49.99 47.97 51 51 C52.32 50.67 53.64 50.34 55 50 C55.66 52.31 56.32 54.62 57 57 C58.32 56.67 59.64 56.34 61 56 C61.5 68.38 61.5 68.38 62 81 C62.33 75.06 62.66 69.12 63 63 C64.32 63 65.64 63 67 63 C67.92 68.41 68.08 73.51 68 79 C68.33 75.7 68.66 72.4 69 69 C70.32 69 71.64 69 73 69 C74.33 71.66 74.11 73.69 74.1 76.66 C74.09 77.79 74.09 78.91 74.09 80.06 C74.08 81.24 74.07 82.41 74.06 83.62 C74.06 84.81 74.05 85.99 74.05 87.21 C74.04 90.14 74.02 93.07 74 96 C72.02 96.99 72.02 96.99 70 98 C69.67 97.67 69.34 97.34 69 97 C68.34 98.98 67.68 100.96 67 103 C65.35 103 63.7 103 62 103 C62.02 103.8 62.04 104.61 62.06 105.44 C62 108 62 108 61 109 C59.33 109.04 57.67 109.04 56 109 C56 110.98 56 112.96 56 115 C55.07 115.09 55.07 115.09 54.12 115.19 C51.72 115.83 51.72 115.83 50.75 118.56 C50.5 119.37 50.25 120.17 50 121 C48.35 121 46.7 121 45 121 C45 122.65 45 124.3 45 126 C44.07 126.37 44.07 126.37 43.12 126.75 C40.61 128.23 40.15 129.38 39 132 C38.34 132.66 37.68 133.32 37 134 C36.01 134 35.02 134 34 134 C33.34 135.65 32.68 137.3 32 139 C30.35 139 28.7 139 27 139 C27 140.65 27 142.3 27 144 C25.35 144.33 23.7 144.66 22 145 C21.67 146.65 21.34 148.3 21 150 C19.35 150.33 17.7 150.66 16 151 C15.01 153.97 15.01 153.97 14 157 C12.35 157 10.7 157 9 157 C9 158.65 9 160.3 9 162 C8.01 162.33 7.02 162.66 6 163 C5.34 162.67 4.68 162.34 4 162 C4 163.65 4 165.3 4 167 C1.63 167.62 1.63 167.62 -1 168 C-1.99 167.01 -1.99 167.01 -3 166 C-3 164.68 -3 163.36 -3 162 C-4.65 162 -6.3 162 -8 162 C-8.5 159.52 -8.5 159.52 -9 157 C-10.65 157 -12.3 157 -14 157 C-14.37 155.55 -14.37 155.55 -14.75 154.06 C-15.16 153.05 -15.57 152.04 -16 151 C-18.03 150.03 -18.03 150.03 -20 150 C-20.5 147.52 -20.5 147.52 -21 145 C-22.65 144.67 -24.3 144.34 -26 144 C-26.06 143.38 -26.12 142.76 -26.19 142.12 C-26.46 141.42 -26.72 140.72 -27 140 C-28.66 139.32 -30.33 138.65 -32 138 C-32.68 136.67 -33.35 135.34 -34 134 C-36.05 133.19 -36.05 133.19 -38 133 C-38.33 131.02 -38.66 129.04 -39 127 C-39.99 127.5 -39.99 127.5 -41 128 C-42.49 127.01 -42.49 127.01 -44 126 C-44.19 123.38 -44.19 123.38 -44 121 C-45.98 121 -47.96 121 -50 121 C-50.08 120.22 -50.17 119.43 -50.25 118.62 C-50.5 117.76 -50.75 116.89 -51 116 C-52.32 115.32 -53.66 114.65 -55 114 C-55.33 113.15 -55.66 112.31 -56 111.44 C-56.33 110.63 -56.66 109.83 -57 109 C-58.32 108.67 -59.64 108.34 -61 108 C-61 91.5 -61 75 -61 58 C-59.68 57.34 -58.36 56.68 -57 56 C-56.67 63.59 -56.34 71.18 -56 79 C-55.67 79 -55.34 79 -55 79 C-54.67 69.76 -54.34 60.52 -54 51 C-53.01 51 -52.02 51 -51 51 C-50.67 51.33 -50.34 51.66 -50 52 C-49.34 49.69 -48.68 47.38 -48 45 C-47.01 45 -46.02 45 -45 45 C-44.34 46.32 -43.68 47.64 -43 49 C-42.67 46.03 -42.34 43.06 -42 40 C-41.01 40 -40.02 40 -39 40 C-38.67 43.63 -38.34 47.26 -38 51 C-37.91 49.3 -37.91 49.3 -37.82 47.57 C-37.73 46.09 -37.65 44.61 -37.56 43.12 C-37.52 42.38 -37.48 41.63 -37.44 40.86 C-37.11 35.23 -37.11 35.23 -36 33 C-34.51 33.5 -34.51 33.5 -33 34 C-32.5 42.42 -32.5 42.42 -32 51 C-31.67 43.41 -31.34 35.82 -31 28 C-29.68 28 -28.36 28 -27 28 C-26.5 39.38 -26.5 39.38 -26 51 C-25.67 41.43 -25.34 31.86 -25 22 C-23.68 22.33 -22.36 22.66 -21 23 C-20.67 31.91 -20.34 40.82 -20 50 C-19.67 39.77 -19.34 29.54 -19 19 C-18.01 18.67 -17.02 18.34 -16 18 C-16 38.79 -16 59.58 -16 81 C-15.34 81 -14.68 81 -14 81 C-14.01 79.8 -14.02 78.61 -14.04 77.38 C-14.11 64.81 -13.93 52.26 -13.63 39.7 C-13.58 37.91 -13.54 36.11 -13.5 34.31 C-13.45 31.75 -13.38 29.19 -13.32 26.62 C-13.29 25.48 -13.29 25.48 -13.27 24.3 C-13.14 19.79 -12.72 15.46 -12 11 C-11.67 11 -11.34 11 -11 11 C-9.77 18.96 -9.66 26.96 -9.44 35 C-9.39 36.46 -9.35 37.91 -9.31 39.37 C-9.2 42.91 -9.1 46.46 -9 50 C-6.82 47.82 -7.74 42.75 -7.68 39.71 C-7.66 38.78 -7.64 37.85 -7.62 36.89 C-7.56 33.91 -7.5 30.92 -7.44 27.94 C-7.39 25.92 -7.35 23.9 -7.31 21.88 C-7.2 16.92 -7.1 11.96 -7 7 C-6.67 7 -6.34 7 -6 7 C-5.94 7.78 -5.88 8.56 -5.82 9.37 C-5.73 10.38 -5.65 11.39 -5.56 12.44 C-5.48 13.45 -5.4 14.46 -5.32 15.5 C-5.27 17.94 -5.27 17.94 -4 19 C-3.84 21.22 -3.75 23.44 -3.68 25.66 C-3.66 26.32 -3.64 26.99 -3.62 27.67 C-3.56 29.8 -3.5 31.93 -3.44 34.06 C-3.39 35.5 -3.35 36.94 -3.31 38.38 C-3.2 41.92 -3.1 45.46 -3 49 C-2.67 49 -2.34 49 -2 49 C-1.34 32.83 -0.68 16.66 0 0 Z M15 87 C15 91.29 15 95.58 15 100 C15.33 100 15.66 100 16 100 C16 95.71 16 91.42 16 87 C15.67 87 15.34 87 15 87 Z M15 101 C15 104.3 15 107.6 15 111 C15.33 111 15.66 111 16 111 C16 107.7 16 104.4 16 101 C15.67 101 15.34 101 15 101 Z " fill="#06070A" transform="translate(320,242)"/>
<path d="M0 0 C3.06 2.11 5.84 4.36 8.62 6.81 C9.24 6.15 9.86 5.49 10.5 4.81 C12.62 2.81 12.62 2.81 14.62 2.81 C14.62 2.15 14.62 1.49 14.62 0.81 C21.09 -2.16 28.15 -2.24 34.94 -0.19 C39.19 2.98 43.23 7.03 45.62 11.81 C45.71 14.51 45.74 17.18 45.72 19.88 C45.72 20.68 45.72 21.48 45.72 22.3 C45.71 24.84 45.7 27.39 45.69 29.94 C45.68 31.66 45.68 33.39 45.67 35.11 C45.66 39.35 45.65 43.58 45.62 47.81 C43.64 47.81 41.66 47.81 39.62 47.81 C39.62 46.84 39.61 45.88 39.6 44.88 C39.56 41.27 39.49 37.65 39.42 34.04 C39.39 32.48 39.37 30.92 39.35 29.36 C39.33 27.11 39.29 24.87 39.23 22.62 C39.23 21.93 39.23 21.24 39.23 20.52 C39.08 15.51 37.58 12.78 34.62 8.81 C34.62 8.15 34.62 7.49 34.62 6.81 C28.96 5.4 23.81 5.03 18.31 7 C15.22 9.09 14.22 10.45 12.62 13.81 C12.32 16.44 12.16 18.85 12.15 21.48 C12.13 22.57 12.13 22.57 12.1 23.68 C12.05 25.97 12.03 28.27 12 30.56 C11.96 32.87 11.92 35.18 11.88 37.49 C11.85 38.93 11.83 40.36 11.81 41.8 C11.74 46.7 11.74 46.7 10.62 47.81 C8.96 47.85 7.29 47.86 5.62 47.81 C5.61 46.95 5.6 46.09 5.58 45.2 C5.52 41.96 5.45 38.73 5.36 35.49 C5.33 34.1 5.3 32.7 5.28 31.31 C5.14 23.39 4.96 16.13 1.62 8.81 C-1.32 7.19 -1.32 7.19 -4.38 6.81 C-5.03 6.48 -5.7 6.15 -6.38 5.81 C-11.06 5.93 -16.38 6.27 -20.38 8.81 C-22.26 13.3 -22.66 17.27 -22.75 22.11 C-22.77 22.78 -22.79 23.46 -22.81 24.15 C-22.86 26.29 -22.9 28.43 -22.94 30.56 C-22.98 32.71 -23.03 34.86 -23.08 37.01 C-23.13 38.95 -23.16 40.89 -23.2 42.83 C-23.38 45.81 -23.38 45.81 -24.38 47.81 C-26.04 47.86 -27.71 47.85 -29.38 47.81 C-30.95 46.24 -30.5 44.68 -30.5 42.49 C-30.51 41.57 -30.51 40.66 -30.51 39.71 C-30.51 38.71 -30.51 37.72 -30.51 36.69 C-30.51 35.67 -30.51 34.65 -30.51 33.6 C-30.51 31.45 -30.51 29.29 -30.51 27.14 C-30.5 23.83 -30.51 20.52 -30.51 17.2 C-30.51 15.11 -30.51 13.03 -30.51 10.94 C-30.51 9.94 -30.51 8.94 -30.51 7.91 C-30.51 7 -30.51 6.08 -30.5 5.13 C-30.5 4.32 -30.5 3.51 -30.5 2.67 C-30.38 0.81 -30.38 0.81 -29.38 -0.19 C-27.71 -0.23 -26.04 -0.23 -24.38 -0.19 C-24.04 1.13 -23.72 2.45 -23.38 3.81 C-22.94 3.45 -22.5 3.09 -22.05 2.72 C-15.23 -2.27 -7.95 -2.8 0 0 Z " fill="#06070A" transform="translate(664.375,290.1875)"/>
<path d="M0 0 C1.12 -0 2.24 -0 3.4 -0 C4.58 -0 5.75 0 6.97 0.01 C8.12 0 9.26 0 10.45 -0 C29.67 0.02 29.67 0.02 36.47 4.13 C36.47 4.79 36.47 5.45 36.47 6.13 C37.13 6.13 37.79 6.13 38.47 6.13 C43.86 11.84 44.63 18.57 44.47 26.13 C43.96 32.42 41.22 37.09 36.47 41.13 C29.73 46.51 22.23 45.59 14.03 45.38 C12.62 45.36 11.2 45.34 9.79 45.33 C6.35 45.29 2.91 45.21 -0.53 45.13 C-0.86 52.72 -1.19 60.31 -1.53 68.13 C-3.51 68.13 -5.49 68.13 -7.53 68.13 C-7.53 46.02 -7.53 23.91 -7.53 1.13 C-4.9 -0.18 -2.94 0 0 0 Z M-0.53 7.13 C-1.29 11.19 -1.66 15.03 -1.66 19.15 C-1.67 20.26 -1.67 21.36 -1.67 22.5 C-1.66 23.64 -1.66 24.77 -1.66 25.95 C-1.66 27.1 -1.66 28.26 -1.67 29.45 C-1.67 30.55 -1.67 31.65 -1.66 32.78 C-1.66 33.78 -1.66 34.79 -1.66 35.82 C-1.79 38.1 -1.79 38.1 -0.53 39.13 C1.61 39.22 3.76 39.24 5.91 39.23 C7.22 39.23 8.52 39.22 9.87 39.22 C11.25 39.21 12.64 39.2 14.03 39.2 C15.42 39.19 16.82 39.19 18.21 39.18 C21.63 39.17 25.05 39.15 28.47 39.13 C28.47 38.47 28.47 37.81 28.47 37.13 C29.23 36.91 30 36.68 30.78 36.45 C34.05 34.85 34.87 33.33 36.47 30.13 C36.8 29.47 37.13 28.81 37.47 28.13 C37.99 22.9 38.11 18.49 35.84 13.7 C30.94 8.4 26.69 6.37 19.55 6.05 C12.83 5.92 6.15 6.55 -0.53 7.13 Z " fill="#06070A" transform="translate(430.53125,269.8671875)"/>
<path d="M0 0 C2.56 1.75 2.56 1.75 4 3 C4.66 1.02 5.32 -0.96 6 -3 C7.65 -3 9.3 -3 11 -3 C11 12.84 11 28.68 11 45 C9.35 45 7.7 45 6 45 C5.34 43.02 4.68 41.04 4 39 C3.13 39.93 3.13 39.93 2.25 40.88 C-3.25 46.07 -9.71 45.92 -17 46 C-25.03 44.6 -30.14 40.6 -34.74 34.07 C-38.12 28.5 -38.73 22.36 -38 16 C-36.91 11.96 -35.33 8.5 -33 5 C-32.34 5 -31.68 5 -31 5 C-31 4.34 -31 3.68 -31 3 C-21.05 -5.12 -11.16 -6.12 0 0 Z M-25.88 6.75 C-29.97 11.09 -31.17 15.18 -31.38 21 C-31.17 26.38 -30.17 30.68 -26.38 34.73 C-22.17 38.54 -19.34 39.87 -13.62 40.19 C-8.07 39.9 -3.49 38.31 1 35 C5.58 29.91 6.08 24.62 6 18 C5.03 12.86 2.68 9.68 -1 6 C-10.22 1.14 -17.08 1.4 -25.88 6.75 Z " fill="#06070A" transform="translate(517,293)"/>
<path d="M0 0 C1.36 0.97 2.7 1.96 4 3 C4.33 1.02 4.66 -0.96 5 -3 C7.48 -2.5 7.48 -2.5 10 -2 C10 13.51 10 29.02 10 45 C8.35 45 6.7 45 5 45 C4.07 41.99 3.96 41.13 5 38 C4.53 38.41 4.05 38.82 3.57 39.24 C-3.38 44.9 -9.17 46.28 -18.06 46 C-25.5 45.2 -29.5 41.77 -34.38 36.38 C-38.89 29.78 -39 23.28 -39 15.44 C-37.12 8.98 -33.13 3.78 -28 -0.5 C-17.96 -5.52 -9.77 -4.97 0 0 Z M-27.44 7.38 C-31.44 11.47 -32.3 15.16 -32.38 20.81 C-32.27 26.39 -31.43 30.54 -28 35 C-23.74 39.05 -19.51 39.79 -13.82 40.09 C-8.71 39.93 -4.13 39.11 -0.4 35.41 C0.91 33.67 1.98 31.93 3 30 C3.43 29.2 3.87 28.39 4.31 27.56 C6 21.27 5.42 16.42 2.25 10.82 C-0.93 6.19 -4.46 3.88 -9.81 2.5 C-16.55 1.44 -22.05 3.27 -27.44 7.38 Z " fill="#06070A" transform="translate(613,293)"/>
<path d="M0 0 C6.05 4.23 10.2 8.73 12 16 C12.99 23.75 12.21 30.34 8 37 C5.62 39.81 5.62 39.81 3 42 C2.17 42.74 1.35 43.49 0.5 44.25 C-5.9 47.45 -13.6 47.82 -20.56 46.19 C-23.2 45.28 -25.6 44.4 -28 43 C-28 42.34 -28 41.68 -28 41 C-28.87 40.72 -28.87 40.72 -29.75 40.44 C-33.59 37.99 -34.99 34.01 -37 30 C-38.31 13.78 -38.31 13.78 -33.62 6.83 C-25.01 -2.9 -11.73 -6.86 0 0 Z M-28.56 10.38 C-32.34 15.93 -31.82 22.57 -31 29 C-30.08 31.33 -30.08 31.33 -29 33 C-28.34 33 -27.68 33 -27 33 C-26.66 33.9 -26.66 33.9 -26.31 34.81 C-24.53 37.78 -23.19 38.6 -20 40 C-13.25 41.54 -7.15 41.36 -1 38 C2.87 34.79 4.91 30.87 6 26 C6.58 19.73 5.47 14.3 1.68 9.23 C-2.44 4.79 -6.28 3.31 -12.31 2.62 C-18.81 3.29 -24.11 5.48 -28.56 10.38 Z " fill="#06070A" transform="translate(757,292)"/>
<path d="M0 0 C5.47 4.04 8.08 7.93 9.42 14.58 C10.16 20.12 10.03 25.68 9.97 31.26 C9.97 32.49 9.97 33.72 9.97 34.99 C9.93 44.04 9.93 44.04 8.79 46.32 C7.12 46.36 5.45 46.36 3.79 46.32 C1.86 44.39 2.58 40.81 2.54 38.18 C2.51 36.7 2.47 35.22 2.44 33.75 C2.39 31.41 2.35 29.08 2.31 26.74 C2.27 24.49 2.22 22.24 2.16 19.99 C2.16 19.3 2.15 18.61 2.14 17.89 C2.04 13.96 1.62 10.82 -0.21 7.32 C-4.62 4.74 -10.18 3.66 -15.21 4.32 C-20.39 6.01 -23.19 7.78 -26.21 12.32 C-27.69 15.26 -27.45 18.28 -27.53 21.52 C-27.55 22.22 -27.57 22.93 -27.59 23.66 C-27.66 25.92 -27.72 28.18 -27.78 30.45 C-27.82 31.98 -27.86 33.51 -27.91 35.04 C-28.02 38.8 -28.12 42.56 -28.21 46.32 C-30.19 46.32 -32.17 46.32 -34.21 46.32 C-34.21 30.48 -34.21 14.64 -34.21 -1.68 C-32.56 -1.68 -30.91 -1.68 -29.21 -1.68 C-28.55 -0.03 -27.89 1.62 -27.21 3.32 C-26.68 2.7 -26.14 2.08 -25.59 1.45 C-18.82 -4.61 -7.64 -4.49 0 0 Z " fill="#06070A" transform="translate(867.21484375,291.6796875)"/>
<path d="M0 0 C1.65 0.33 3.3 0.66 5 1 C5.01 1.87 5.03 2.74 5.04 3.64 C5.11 6.91 5.18 10.17 5.26 13.43 C5.3 14.84 5.32 16.25 5.35 17.65 C5.38 19.69 5.43 21.72 5.49 23.75 C5.51 24.97 5.54 26.19 5.57 27.45 C6.15 32.25 7.37 36.42 10.94 39.88 C15.24 42.22 19.12 42.26 24 42 C25.69 41.39 27.36 40.73 29 40 C29.99 40 30.98 40 32 40 C34.47 34.01 36.23 28.82 36.41 22.29 C36.45 21.05 36.49 19.8 36.53 18.52 C36.56 17.23 36.59 15.95 36.62 14.62 C36.66 13.32 36.7 12.01 36.74 10.66 C36.84 7.44 36.92 4.22 37 1 C38.65 0.67 40.3 0.34 42 0 C43.18 2.35 43.12 3.74 43.11 6.36 C43.11 7.26 43.11 8.16 43.11 9.09 C43.11 10.06 43.1 11.04 43.1 12.04 C43.1 13.04 43.09 14.03 43.09 15.06 C43.09 18.25 43.08 21.44 43.06 24.62 C43.06 26.78 43.05 28.94 43.05 31.1 C43.04 36.4 43.02 41.7 43 47 C40.52 47.5 40.52 47.5 38 48 C37.34 46.35 36.68 44.7 36 43 C35.53 43.62 35.05 44.24 34.56 44.88 C29.45 49.11 23.38 49.22 16.94 49 C10.92 48.36 7.18 46.32 3 42 C-1.31 36.57 -1.13 29.95 -1.13 23.26 C-1.13 22.03 -1.14 20.8 -1.14 19.53 C-1.13 18.26 -1.13 16.99 -1.12 15.69 C-1.13 14.4 -1.13 13.11 -1.14 11.79 C-1.14 10.56 -1.13 9.34 -1.13 8.07 C-1.13 6.96 -1.13 5.84 -1.13 4.69 C-1 2 -1 2 0 0 Z " fill="#06070A" transform="translate(779,290)"/>
<path d="M0 0 C45.21 0 90.42 0 137 0 C136.67 1.65 136.34 3.3 136 5 C118.43 5.02 100.87 5.04 83.3 5.05 C75.14 5.06 66.99 5.06 58.83 5.08 C51.72 5.09 44.61 5.09 37.51 5.09 C33.74 5.1 29.98 5.1 26.21 5.11 C22.02 5.11 17.82 5.11 13.62 5.11 C12.36 5.12 11.11 5.12 9.82 5.12 C8.11 5.12 8.11 5.12 6.37 5.12 C5.37 5.12 4.38 5.12 3.35 5.12 C1 5 1 5 -1 4 C-0.67 2.68 -0.34 1.36 0 0 Z " fill="#06070A" transform="translate(437,364)"/>
<path d="M0 0 C1.51 0 1.51 0 3.06 0 C4.21 0 5.37 0 6.56 -0 C7.83 0 9.11 0.01 10.43 0.01 C11.78 0.01 13.13 0.01 14.48 0.01 C18.15 0.01 21.83 0.01 25.5 0.02 C29.34 0.03 33.18 0.03 37.01 0.03 C44.29 0.03 51.56 0.04 58.83 0.05 C67.1 0.06 75.38 0.07 83.65 0.07 C100.68 0.08 117.71 0.1 134.74 0.12 C134.41 1.77 134.08 3.42 133.74 5.12 C89.19 5.12 44.64 5.12 -1.26 5.12 C-1.92 3.8 -2.58 2.48 -3.26 1.12 C-2.26 0.12 -2.26 0.12 0 0 Z " fill="#06070A" transform="translate(766.2626276016235,363.8769521713257)"/>
<path d="M0 0 C1.32 0.33 2.64 0.66 4 1 C4 5.29 4 9.58 4 14 C8.62 14 13.24 14 18 14 C18.66 15.32 19.32 16.64 20 18 C19.5 18.5 19.5 18.5 19 19 C14.05 19 9.1 19 4 19 C4 30.55 4 42.1 4 54 C4.66 54 5.32 54 6 54 C6 54.66 6 55.32 6 56 C10.97 56.91 15.03 56.91 20 56 C20.5 57.98 20.5 57.98 21 60 C16.03 63.31 11 63.29 5.19 62.44 C1.15 60.62 0.14 58.84 -2 55 C-2.61 51.84 -2.61 51.84 -2.75 48.38 C-2.81 47.08 -2.86 45.79 -2.92 44.46 C-3.1 36.31 -3.07 28.15 -3 20 C-5.97 19.67 -8.94 19.34 -12 19 C-12 15 -12 15 -11 14 C-8.33 13.86 -5.68 13.96 -3 14 C-3.03 13.24 -3.07 12.48 -3.11 11.7 C-3.15 10.21 -3.15 10.21 -3.19 8.69 C-3.24 7.21 -3.24 7.21 -3.29 5.7 C-3 3 -3 3 -1.74 1.08 C-1.16 0.72 -0.59 0.37 0 0 Z " fill="#06070A" transform="translate(894,276)"/>
<path d="M0 0 C-0.33 1.65 -0.66 3.3 -1 5 C-1.94 4.84 -1.94 4.84 -2.91 4.68 C-9.01 3.82 -13.57 3.91 -19 7 C-21.29 8.94 -22.67 10.34 -24 13 C-24.14 15.39 -24.23 17.76 -24.28 20.16 C-24.3 20.87 -24.32 21.57 -24.34 22.3 C-24.42 25.32 -24.48 28.34 -24.55 31.36 C-24.6 33.57 -24.66 35.77 -24.72 37.97 C-24.73 38.66 -24.75 39.35 -24.76 40.06 C-24.89 44.89 -24.89 44.89 -26 46 C-28.5 46.12 -28.5 46.12 -31 46 C-32.56 44.44 -32.13 42.95 -32.13 40.79 C-32.13 39.89 -32.14 39 -32.14 38.08 C-32.14 37.1 -32.13 36.13 -32.13 35.13 C-32.13 34.14 -32.13 33.14 -32.14 32.12 C-32.14 30.02 -32.13 27.91 -32.13 25.81 C-32.13 22.58 -32.13 19.35 -32.14 16.12 C-32.14 14.08 -32.13 12.04 -32.13 10 C-32.13 9.03 -32.14 8.06 -32.14 7.06 C-32.14 6.16 -32.13 5.27 -32.13 4.34 C-32.13 3.55 -32.13 2.76 -32.13 1.94 C-32 0 -32 0 -31 -2 C-29.35 -2 -27.7 -2 -26 -2 C-25.34 -0.68 -24.68 0.64 -24 2 C-23.46 1.55 -22.93 1.09 -22.38 0.62 C-14.88 -4.5 -7.76 -3.8 0 0 Z " fill="#06070A" transform="translate(571,292)"/>
<path d="M0 0 C1.32 0.33 2.64 0.66 4 1 C4 14.2 4 27.4 4 41 C2.35 40.67 0.7 40.34 -1 40 C-1.33 38.35 -1.66 36.7 -2 35 C-3.49 35.5 -3.49 35.5 -5 36 C-7 34 -7 34 -7.12 31.38 C-7.08 30.59 -7.04 29.81 -7 29 C-7.62 29.19 -8.24 29.37 -8.88 29.56 C-11 30 -11 30 -13 29 C-13 24.05 -13 19.1 -13 14 C-11.68 13.34 -10.36 12.68 -9 12 C-8.34 13.98 -7.68 15.96 -7 18 C-6.95 17.22 -6.9 16.44 -6.85 15.63 C-6.78 14.62 -6.7 13.61 -6.62 12.56 C-6.56 11.55 -6.49 10.54 -6.41 9.5 C-6.28 8.68 -6.14 7.85 -6 7 C-5.34 6.67 -4.68 6.34 -4 6 C-3.34 6.33 -2.68 6.66 -2 7 C-1.34 4.69 -0.68 2.38 0 0 Z " fill="#06070A" transform="translate(254,304)"/>
<path d="M0 0 C3 2.44 3 2.44 5 5 C5.33 5.33 5.66 5.66 6 6 C6.57 10.49 6.59 13.97 4.31 17.94 C0.92 20.96 -1.37 22.03 -5.94 21.94 C-10.01 20.69 -12.12 19.15 -15 16 C-16.44 12.04 -16.45 9.06 -14.81 5.19 C-10.54 0.03 -6.67 -1.32 0 0 Z " fill="#06070A" transform="translate(874,193)"/>
<path d="M0 0 C2.06 0.44 2.06 0.44 4 1 C4.33 3.64 4.66 6.28 5 9 C7.31 9 9.62 9 12 9 C12.33 6.03 12.66 3.06 13 0 C14.32 0 15.64 0 17 0 C17 7.26 17 14.52 17 22 C15.68 22 14.36 22 13 22 C13 19.36 13 16.72 13 14 C10.36 14 7.72 14 5 14 C4.67 16.64 4.34 19.28 4 22 C3.01 22.33 2.02 22.66 1 23 C0.34 22.67 -0.32 22.34 -1 22 C-1.03 18.52 -1.05 15.04 -1.06 11.56 C-1.07 10.57 -1.08 9.58 -1.09 8.55 C-1.09 7.61 -1.09 6.66 -1.1 5.69 C-1.1 4.82 -1.11 3.94 -1.11 3.04 C-1 1 -1 1 0 0 Z " fill="#06070A" transform="translate(641,355)"/>
<path d="M0 0 C1.07 -0.05 2.14 -0.1 3.24 -0.15 C6.12 0.38 6.12 0.38 8.02 2.71 C9.7 6.77 8.57 9.77 7.44 13.88 C7.03 17.13 7.93 19.36 9.12 22.38 C8.13 22.7 7.14 23.04 6.12 23.38 C3.27 21.95 2.58 19.73 1.12 16.97 C0.21 15.2 0.21 15.2 -1.88 14.38 C-1.83 15.3 -1.79 16.23 -1.75 17.19 C-1.88 20.38 -1.88 20.38 -3.88 23.38 C-4.87 23.05 -5.86 22.71 -6.88 22.38 C-6.9 18.9 -6.92 15.42 -6.94 11.94 C-6.95 10.94 -6.95 9.95 -6.96 8.93 C-6.97 7.98 -6.97 7.04 -6.97 6.07 C-6.98 5.19 -6.98 4.32 -6.99 3.42 C-6.75 -0.83 -3.6 0.11 0 0 Z M-1.88 3.38 C-2.21 5.36 -2.53 7.33 -2.88 9.38 C0.71 10.38 0.71 10.38 4.12 9.38 C4.12 7.73 4.12 6.07 4.12 4.38 C1.15 3.88 1.15 3.88 -1.88 3.38 Z " fill="#06070A" transform="translate(608.875,354.625)"/>
<path d="M0 0 C1.68 0.29 3.34 0.62 5 1 C6.04 4.1 7.05 7.21 8.06 10.31 C8.36 11.19 8.65 12.07 8.96 12.98 C9.23 13.83 9.5 14.68 9.79 15.55 C10.04 16.33 10.3 17.11 10.56 17.92 C11 20 11 20 10 23 C8.68 22.67 7.36 22.34 6 22 C6 20.35 6 18.7 6 17 C3.36 17 0.72 17 -2 17 C-2.1 17.62 -2.21 18.24 -2.31 18.88 C-3 21 -3 21 -6 23 C-6.66 22.34 -7.32 21.68 -8 21 C-2.92 2.92 -2.92 2.92 0 0 Z M1 8 C0.67 9.65 0.34 11.3 0 13 C1.32 13 2.64 13 4 13 C3.34 11.35 2.68 9.7 2 8 C1.67 8 1.34 8 1 8 Z " fill="#06070A" transform="translate(589,355)"/>
<path d="M0 0 C0.33 1.32 0.66 2.64 1 4 C-2.27 4 -4.85 3.7 -8 3 C-7.8 4.95 -7.8 4.95 -7 7 C-5.22 8.24 -5.22 8.24 -3.06 9.06 C0.23 10.46 0.9 10.86 3 14 C2.81 17.05 2.61 19.2 0.73 21.66 C-1.47 23.36 -2.74 23.4 -5.5 23.38 C-6.27 23.38 -7.05 23.39 -7.84 23.4 C-10.48 22.91 -11.39 22.11 -13 20 C-13 19.34 -13 18.68 -13 18 C-10.03 18.33 -7.06 18.66 -4 19 C-3.67 17.68 -3.34 16.36 -3 15 C-3.55 14.75 -4.11 14.49 -4.68 14.23 C-5.4 13.89 -6.13 13.54 -6.88 13.19 C-7.59 12.85 -8.31 12.51 -9.05 12.17 C-11 11 -11 11 -13 8 C-13.36 5.08 -13.48 3.63 -11.69 1.25 C-7.77 -1.66 -4.56 -0.77 0 0 Z " fill="#06070A" transform="translate(754,355)"/>
<path d="M0 0 C1.79 0.02 1.79 0.02 3.62 0.04 C5.42 0.05 5.42 0.05 7.25 0.06 C8.18 0.07 9.1 0.09 10.06 0.1 C10.06 1.09 10.06 2.08 10.06 3.1 C7.09 3.1 4.12 3.1 1.06 3.1 C1.06 5.08 1.06 7.06 1.06 9.1 C3.37 9.1 5.68 9.1 8.06 9.1 C8.06 10.42 8.06 11.74 8.06 13.1 C5.75 13.43 3.44 13.76 1.06 14.1 C1.06 15.42 1.06 16.74 1.06 18.1 C5.51 19.09 5.51 19.09 10.06 20.1 C9.73 21.09 9.4 22.08 9.06 23.1 C7.08 23.12 5.1 23.14 3.12 23.16 C2.02 23.17 0.92 23.18 -0.22 23.2 C-2.94 23.1 -2.94 23.1 -3.94 22.1 C-4.04 20.55 -4.07 18.99 -4.07 17.44 C-4.08 16.5 -4.08 15.56 -4.08 14.59 C-4.07 13.61 -4.07 12.62 -4.07 11.6 C-4.07 10.61 -4.07 9.62 -4.08 8.6 C-4.08 7.66 -4.08 6.72 -4.07 5.75 C-4.07 4.89 -4.07 4.02 -4.07 3.12 C-3.86 -0.14 -3.33 0.11 0 0 Z " fill="#06070A" transform="translate(692.94140625,354.90234375)"/>
<path d="M0 0 C0.33 1.32 0.66 2.64 1 4 C0.01 4.33 -0.98 4.66 -2 5 C-2.33 4.67 -2.66 4.34 -3 4 C-5.46 3.67 -5.46 3.67 -8 4 C-10.07 7.1 -10.29 7.95 -10.31 11.5 C-10.33 12.27 -10.35 13.05 -10.36 13.84 C-10.15 16.06 -10.15 16.06 -8.74 17.8 C-6.49 19.35 -5.46 19.17 -2.81 18.69 C-1.55 18.46 -0.3 18.23 1 18 C1 18.99 1 19.98 1 21 C-1.36 23.36 -2.08 23.37 -5.31 23.5 C-9.22 23.41 -9.85 23.13 -13 20.44 C-15.78 15.65 -16.52 12.22 -15.25 6.81 C-12.54 0.71 -12.54 0.71 -9.25 -0.81 C-6.07 -1.08 -3.13 -0.54 0 0 Z " fill="#06070A" transform="translate(721,355)"/>
<path d="M0 0 C1.18 2.05 1.18 2.05 2 4 C1.08 3.93 1.08 3.93 0.14 3.86 C-0.67 3.82 -1.48 3.79 -2.31 3.75 C-3.11 3.7 -3.91 3.66 -4.74 3.61 C-7.13 3.81 -7.13 3.81 -8.81 5.69 C-10.28 8.55 -10.14 10.09 -9.69 13.25 C-9.57 14.14 -9.45 15.03 -9.32 15.95 C-9.22 16.63 -9.11 17.3 -9 18 C-5.34 18.75 -2.58 19.24 1 18 C1 19.32 1 20.64 1 22 C-2.22 23.61 -5.52 23.61 -9 23 C-12.16 20.44 -14.73 18.21 -15.24 14.05 C-15.42 8.52 -14.86 5.27 -11 1 C-7.16 -1.32 -4.26 -1.32 0 0 Z " fill="#06070A" transform="translate(635,355)"/>
<path d="M0 0 C5.28 0 10.56 0 16 0 C16 0.99 16 1.98 16 3 C14.35 3 12.7 3 11 3 C10.67 9.27 10.34 15.54 10 22 C9.01 22.33 8.02 22.66 7 23 C6.34 22.67 5.68 22.34 5 22 C5 15.73 5 9.46 5 3 C3.35 3 1.7 3 0 3 C0 2.01 0 1.02 0 0 Z " fill="#06070A" transform="translate(724,355)"/>
<path d="M0 0 C5.28 0 10.56 0 16 0 C16 0.99 16 1.98 16 3 C14.02 3 12.04 3 10 3 C10 9.27 10 15.54 10 22 C9.34 22.33 8.68 22.66 8 23 C7.01 22.34 6.02 21.68 5 21 C4.66 19.12 4.66 19.12 4.71 16.87 C4.72 16.06 4.73 15.26 4.74 14.43 C4.76 13.58 4.79 12.74 4.81 11.88 C4.83 11.03 4.84 10.18 4.85 9.3 C4.89 7.2 4.94 5.1 5 3 C3.35 3 1.7 3 0 3 C0 2.01 0 1.02 0 0 Z " fill="#06070A" transform="translate(670,355)"/>
<path d="M0 0 C1.32 0 2.64 0 4 0 C4.33 2.31 4.66 4.62 5 7 C6.32 6.67 7.64 6.34 9 6 C9.33 6.99 9.66 7.98 10 9 C9.67 9.66 9.34 10.32 9 11 C7.68 11 6.36 11 5 11 C4.67 12.98 4.34 14.96 4 17 C2.68 17 1.36 17 0 17 C0 11.39 0 5.78 0 0 Z " fill="#06070A" transform="translate(395,316)"/>
<path d="M0 0 C1.32 0.33 2.64 0.66 4 1 C4 7.93 4 14.86 4 22 C3.01 22.33 2.02 22.66 1 23 C0 22 0 22 -0.11 19.87 C-0.11 18.95 -0.1 18.03 -0.1 17.09 C-0.09 16.1 -0.09 15.11 -0.09 14.09 C-0.08 13.05 -0.07 12.01 -0.06 10.94 C-0.06 9.89 -0.05 8.85 -0.05 7.77 C-0.04 5.18 -0.02 2.59 0 0 Z " fill="#06070A" transform="translate(663,355)"/>
<path d="M0 0 C1.32 0 2.64 0 4 0 C4 1.65 4 3.3 4 5 C2.68 5 1.36 5 0 5 C0 3.35 0 1.7 0 0 Z " fill="#06070A" transform="translate(236,322)"/>
</svg>
