<?xml version="1.0" encoding="utf-8"?>
<!-- Generator: Adobe Illustrator 21.0.2, SVG Export Plug-In . SVG Version: 6.00 Build 0)  -->
<svg version="1.1" id="Layer_1" xmlns="http://www.w3.org/2000/svg" xmlns:xlink="http://www.w3.org/1999/xlink" x="0px" y="0px"
	 viewBox="0 0 40 40" style="enable-background:new 0 0 40 40;" xml:space="preserve">
<style type="text/css">
	.st0{fill:#AB9D6B;}
</style>
<path class="st0" d="M40,7V1.3h-5V0h-2.4v2.3H34V6H6V2.3h1.5V0H5v1.3H0V7h5v9.2H0v5.6h5V33H0v5.6h5V40h2.4v-2.3H6V34h28v3.7h-1.5V40
	H35v-1.3h5V33h-5V21.8h5v-5.6h-5V7H40z M39,34v3.6h-4V34H39z M1,6V2.3h4V6H1z M5,17.2v3.6H1v-3.6H5z M5,34v3.6H1V34H5z M33.5,1.4
	V0.9H34v0.4h0v0H33.5z M34,39.1h-0.5v-0.4H34L34,39.1z M33.9,7V33H6.1V7H33.9z M6,39.1v-0.4h0v0h0.5v0.4H6z M6,1.3V0.9h0.5v0.4
	L6,1.3L6,1.3L6,1.3z M39,2.3V6h-4V2.3H39z M35,20.8v-3.6h4v3.6H35z"/>
</svg>
